<svg id="Capa_1" enable-background="new 0 0 497 497" height="512" viewBox="0 0 497 497" width="512" xmlns="http://www.w3.org/2000/svg"><g><path d="m330.475 182.233h62.983c4.575 0 8.283 3.709 8.283 8.283v149.1c0 4.575-3.709 8.283-8.283 8.283h-62.983v33.133h71.267c18.27 0 33.133-14.864 33.133-33.133v-165.666c0-18.269-14.863-33.133-33.133-33.133h-71.267z" fill="#edf4ff"/><path d="m401.742 149.1h-23c18.27 0 33.133 14.864 33.133 33.133v165.667c0 18.269-14.863 33.133-33.133 33.133h23c18.27 0 33.133-14.864 33.133-33.133v-165.667c0-18.269-14.864-33.133-33.133-33.133z" fill="#d6e0ff"/><path d="m86.975 77.981h248.5v374.171h-248.5z" fill="#ffd97d"/><g><g><g><path d="m144.958 405.1c-13.27 0-24.066-10.796-24.066-24.067 0-4.142 3.357-7.5 7.5-7.5s7.5 3.358 7.5 7.5c0 5 4.067 9.067 9.066 9.067 5 0 9.067-4.067 9.067-9.067v-132.533c0-4.999-4.067-9.067-9.067-9.067-4.999 0-9.066 4.067-9.066 9.067 0 4.142-3.357 7.5-7.5 7.5s-7.5-3.358-7.5-7.5c0-13.27 10.796-24.067 24.066-24.067 13.271 0 24.067 10.796 24.067 24.067v132.533c0 13.271-10.797 24.067-24.067 24.067z" fill="#ffc269"/></g><g><path d="m277.491 405.1c-13.271 0-24.066-10.796-24.066-24.067v-132.533c0-13.27 10.796-24.067 24.066-24.067s24.067 10.796 24.067 24.067c0 4.142-3.357 7.5-7.5 7.5s-7.5-3.358-7.5-7.5c0-4.999-4.067-9.067-9.067-9.067-4.999 0-9.066 4.067-9.066 9.067v132.533c0 5 4.067 9.067 9.066 9.067 5 0 9.067-4.067 9.067-9.067 0-4.142 3.357-7.5 7.5-7.5s7.5 3.358 7.5 7.5c.001 13.271-10.796 24.067-24.067 24.067z" fill="#ffc269"/></g><g><path d="m211.224 405.1c-13.27 0-24.066-10.796-24.066-24.067v-132.533c0-13.27 10.796-24.067 24.066-24.067 13.271 0 24.067 10.796 24.067 24.067v132.533c.001 13.271-10.796 24.067-24.067 24.067zm0-165.667c-4.999 0-9.066 4.067-9.066 9.067v132.533c0 5 4.067 9.067 9.066 9.067 5 0 9.067-4.067 9.067-9.067v-132.533c.001-4.999-4.067-9.067-9.067-9.067z" fill="#ffc269"/></g></g></g><path d="m312.475 77.981h23v374.171h-23z" fill="#ffc269"/><path d="m86.975 77.981h248.5v71.119h-248.5z" fill="#edf4ff"/><path d="m312.475 77.981h23v71.119h-23z" fill="#d6e0ff"/><path d="m244.358 82.833c-9.149 0-16.567 7.417-16.567 16.567v49.266c0 9.286-7.599 17.172-16.883 16.998-9.004-.169-16.25-7.52-16.25-16.564v-32.699c0-9.286-7.599-17.172-16.883-16.998-9.003.169-16.25 7.52-16.25 16.564v65.832c0 9.286-7.599 17.172-16.883 16.998-9.003-.169-16.25-7.52-16.25-16.564v-82.833c0-9.149-7.417-16.567-16.567-16.567h-24.29c-13.932 0-25.669-11.401-25.405-25.331.256-13.502 11.281-24.369 24.845-24.369.798 0 1.588.038 2.367.112 3.607.343 6.988-1.877 8.166-5.304 5.59-16.257 21.011-27.941 39.167-27.941 12.376 0 23.476 5.434 31.064 14.04 1.753 1.988 4.342 2.972 6.979 2.7 1.109-.114 2.235-.174 3.374-.174 2.04 0 4.036.186 5.973.539 2.324.425 4.701-.162 6.549-1.633 5.657-4.5 12.82-7.19 20.61-7.19s14.953 2.689 20.611 7.19c1.849 1.471 4.225 2.058 6.549 1.633 1.938-.354 3.934-.539 5.973-.539 1.14 0 2.265.059 3.374.174 2.637.272 5.226-.712 6.979-2.7 7.589-8.606 18.689-14.04 31.065-14.04 18.155 0 33.576 11.683 39.167 27.94 1.181 3.433 4.571 5.645 8.185 5.304 1.741-.164 3.535-.148 5.364.069 11.806 1.404 21.065 11.249 21.787 23.116.878 14.429-10.564 26.404-24.803 26.404z" fill="#faf8fa"/><g><g fill="#eceaec"><path d="m154.775 99.403c-9.004.169-16.25 7.52-16.25 16.564v65.832c0 4.745-1.992 9.116-5.171 12.242 2.92 2.87 6.89 4.674 11.288 4.756 9.284.174 16.883-7.712 16.883-16.998v-65.832c0-4.626 1.904-8.802 4.962-11.807-3.043-2.991-7.172-4.842-11.712-4.757z"/><path d="m360.277 56.429c-.722-11.868-9.98-21.713-21.787-23.116-1.829-.217-3.623-.234-5.364-.069-3.614.341-7.004-1.871-8.185-5.304-5.591-16.257-21.011-27.94-39.166-27.94-3.987 0-7.838.571-11.486 1.623 12.952 3.742 23.292 13.638 27.653 26.316 1.181 3.433 4.571 5.645 8.185 5.304 1.741-.164 3.535-.148 5.364.069 11.806 1.404 21.065 11.249 21.787 23.116.878 14.429-10.564 26.404-24.803 26.404h23c14.239.001 25.68-11.974 24.802-26.403z"/><path d="m204.792 99.4v49.266c0 4.745-1.992 9.116-5.171 12.242 2.92 2.87 6.891 4.674 11.288 4.756 9.284.174 16.883-7.712 16.883-16.998v-49.266c0-9.149 7.417-16.567 16.567-16.567h-23c-9.15 0-16.567 7.418-16.567 16.567z"/></g></g><path d="m352.106 463.996c0-9.221-7.475-16.696-16.696-16.696h-248.37c-9.221 0-16.696 7.475-16.696 16.696v24.721c0 4.575 3.709 8.283 8.283 8.283h265.18c4.568 0 8.274-3.699 8.283-8.267z" fill="#edf4ff"/><path d="m335.41 447.3h-23c9.221 0 16.696 7.475 16.696 16.696l-.016 24.737c-.009 4.568-3.715 8.267-8.283 8.267h23c4.568 0 8.274-3.699 8.283-8.267l.016-24.737c0-9.221-7.475-16.696-16.696-16.696z" fill="#d6e0ff"/></g></svg>