<svg id="Layer_3" enable-background="new 0 0 64 64" height="512" viewBox="0 0 64 64" width="512" xmlns="http://www.w3.org/2000/svg"><g><path d="m36.999 50.998c.552 0 1-.447 1-.998v-18c0-.552-.448-1-1-1s-1 .448-1 1v18c.001.551.449.998 1 .998z"/><path d="m27 32v18c0 .551.448.998.999.998h.001c.551 0 1-.447 1-.998v-18c0-.552-.448-1-1-1s-1 .448-1 1z"/><path d="m19 31c-.552 0-1 .448-1 1v18c0 .551.448.998.999.998h.001c.551 0 1-.447 1-.998v-18c0-.552-.449-1-1-1z"/><path d="m15 13c.242 0 .501-.042.815-.131.269-.075.554-.038.79.105.237.143.405.378.462.649.291 1.377 1.524 2.376 2.933 2.376.099 0 .194-.016.29-.029.002 0 .102-.014.104-.015.413-.048.803.145 1.003.501.535.952 1.532 1.542 2.603 1.542.864 0 1.662-.368 2.247-1.037.19-.217.464-.342.752-.342.289 0 .563.125.753.342.584.669 1.382 1.037 2.247 1.037-.012-.005.046-.011.105-.013.011 0 .021-.001.032-.001.456 0 .855.309.969.753.105.411.297.792.573 1.133.296.366.296.89 0 1.256-.444.551-.678 1.198-.678 1.873 0 1.654 1.346 3 3 3s3-1.346 3-3c0-.674-.234-1.321-.679-1.872-.296-.367-.296-.89 0-1.257.444-.549.679-1.196.679-1.871 0-.342-.068-.697-.204-1.055-.183-.484.034-1.028.5-1.253.836-.405 1.448-1.177 1.636-2.067.057-.271.225-.506.462-.649s.525-.18.79-.105c.314.088.573.13.816.13 1.654 0 3-1.346 3-3 0-1.45-1.039-2.688-2.469-2.945-.188-.034-.363-.12-.503-.25-.459-.424-1.039-.689-1.675-.765-.317-.038-.597-.224-.753-.502-.777-1.376-2.531-1.968-4.022-1.16-.423.234-.953.126-1.256-.25-.913-1.13-2.508-1.471-3.818-.71-.31.182-.695.182-1.006 0-1.104-.642-2.4-.523-3.369.259-.367.296-.891.296-1.257 0-.551-.443-1.198-.677-1.872-.677-1.071 0-2.068.591-2.603 1.543-.201.356-.594.557-1.003.501l-.109-.015c-1.125-.15-2.302.474-2.886 1.509-.156.278-.437.464-.753.502-1.508.179-2.646 1.451-2.646 2.96 0 1.653 1.346 3 3 3z"/><path d="m29.417 19.964c-.877-.105-1.711-.446-2.417-.983-.862.655-1.913 1.018-3 1.018-1.569 0-3.041-.752-3.979-2-.007 0-.014 0-.021 0-2.013 0-3.811-1.224-4.589-3.02-.486.049-.958.017-1.411-.072v40.09h28v-40.09c-.453.089-.926.12-1.414.071-.361.824-.945 1.545-1.683 2.074.064.317.097.634.097.947 0 .886-.235 1.737-.686 2.5.451.763.686 1.615.686 2.5 0 2.757-2.243 5-5 5s-5-2.243-5-5c0-.886.236-1.738.687-2.501-.102-.173-.191-.351-.27-.534zm-7.417 30.036c0 1.653-1.346 2.998-3 2.998s-3-1.345-3-2.998v-18c0-1.654 1.345-3 2.999-3 1.655 0 3 1.346 3 3v18zm12-18c0-1.654 1.345-3 2.999-3 1.655 0 3 1.346 3 3v18c0 1.653-1.346 2.998-3 2.998s-3-1.345-3-2.998v-18zm-3 0v18c0 1.653-1.346 2.998-3 2.998s-3-1.345-3-2.998v-18c0-1.654 1.345-3 2.999-3 1.655 0 3.001 1.345 3.001 3z"/><path d="m43 56.999h-30c-1.103 0-2 .896-2 2 0 1.103.897 1.999 2 1.999h30c1.102 0 1.999-.896 1.999-1.998 0-1.104-.897-2.001-1.999-2.001z"/><path d="m48 19h-4v2h4c1.654 0 3 1.346 3 3v16.999c0 1.654-1.346 3-3 3h-4v2h4c2.757 0 5-2.242 5-5v-16.999c0-2.758-2.243-5-5-5z"/></g></svg>